#!OML:ASF H:\Terrain\Patient Classification 1\Terrain2\Thursday\justin.ASF
:FULLY-SPECIFIED
:DEGREES
3911
root 29.5203 17.8267 0.684838 202.296 -289.434 -876.433
lowerback 6.24325 0.795793 4.74783
upperback 3.39173 1.51014 3.23277
thorax 0.0314223 0.864026 0.575732
lowerneck -12.4417 -2.54 -10.4131
upperneck 41.8015 1.03029 3.39974
head 17.52 0.120547 3.91655
rclavicle -6.16481e-014 -5.02925e-014
rhumerus -26.3198 -8.39962 -77.9926
rradius 29.6009
rwrist -12.4143
rhand -27.4951 13.9484
rfingers 7.12502
rthumb -0.89823 -16.0295
lclavicle -6.16481e-014 -5.02925e-014
lhumerus -37.6077 10.1745 77.6156
lradius 45.14
lwrist 10.1978
lhand -23.8243 23.4998
lfingers 7.12502
lthumb 2.64701 53.4632
rfemur -9.43572 -4.30433 25.979
rtibia 31.1662
rfoot -17.092 -2.68887
rtoes -2.09376
lfemur -9.40967 -7.87822 -10.5613
ltibia 30.9741
lfoot -13.7131 -15.5207
ltoes 19.609
3912
root 29.5373 17.8848 0.707205 202.546 -290.227 -876.253
lowerback 6.42992 0.660164 5.23485
upperback 3.3435 1.38795 3.43695
thorax -0.117528 0.80963 0.518372
lowerneck -12.7069 -2.38334 -10.6079
upperneck 41.8255 1.43876 3.27613
head 17.5683 0.239445 3.97166
rclavicle 6.64438e-014 -9.34288e-015
rhumerus -26.0914 -7.10986 -78.3042
rradius 29.9285
rwrist -13.0307
rhand -27.5804 13.9931
rfingers 7.12502
rthumb -0.980675 -15.9844
lclavicle 6.64438e-014 -9.34288e-015
lhumerus -37.966 10.5156 77.742
lradius 44.9222
lwrist 10.5594
lhand -24.4558 24.2892
lfingers 7.12502
lthumb 2.03712 54.2592
rfemur -9.36652 -3.29447 26.2097
rtibia 30.9891
rfoot -17.4423 -1.4979
rtoes 13.3865
lfemur -9.59552 -8.00249 -10.0833
ltibia 30.917
lfoot -13.9918 -15.6137
ltoes 17.5302
3913
root 29.547 17.8711 0.733477 202.403 -290.911 -876.473
lowerback 6.56651 0.615461 5.59937
upperback 3.32993 1.36781 3.46407
thorax -0.199227 0.804462 0.342392
lowerneck -12.8261 -2.23279 -10.3622
upperneck 41.7112 1.71275 3.01857
head 17.5083 0.359874 3.85091
rclavicle 3.91109e-014 4.17448e-015
rhumerus -25.95 -6.02762 -78.7177
rradius 30.4357
rwrist -13.7953
rhand -27.6062 13.0834
rfingers 7.12502
rthumb -1.00555 -16.894
lclavicle 3.91109e-014 4.17448e-015
lhumerus -38.0971 10.5977 77.6847
lradius 44.4536
lwrist 10.5173
lhand -24.3589 24.9176
lfingers 7.12502
lthumb 2.13073 54.8867
rfemur -9.40631 -4.52443 26.5922
rtibia 30.8241
rfoot -17.2361 -1.97917
rtoes 7.80637
lfemur -9.84566 -8.34501 -9.7887
ltibia 30.9155
lfoot -14.0652 -15.6059
ltoes 16.5899
3914
root 29.5629 17.872 0.768114 201.605 -291.686 -877.439
lowerback 6.57388 0.64872 5.78534
upperback 3.31802 1.42061 3.33417
thorax -0.205335 0.832592 0.101446
lowerneck -12.8272 -2.13311 -9.79859
upperneck 41.5175 1.80518 2.70908
head 17.3884 0.454334 3.61247
rclavicle -2.95692e-014 -7.35503e-015
rhumerus -25.7967 -6.08608 -78.9232
rradius 30.533
rwrist -13.2856
rhand -26.9987 13.1574
rfingers 7.12502
rthumb -0.4188 -16.8219
lclavicle -2.95692e-014 -7.35503e-015
lhumerus -38.0135 10.0461 77.613
lradius 43.9024
lwrist 10.6344
lhand -24.488 24.9801
lfingers 7.12502
lthumb 2.00609 54.9505
rfemur -9.55286 -5.53887 26.6955
rtibia 30.8357
rfoot -17.2058 -2.11745
rtoes 5.74824
lfemur -10.065 -8.51213 -9.69094
ltibia 30.6432
lfoot -13.6525 -15.8924
ltoes 18.073
3915
root 29.5773 17.881 0.799048 200.831 -292.536 -878.216
lowerback 6.77124 0.572328 5.86374
upperback 3.33139 1.34927 3.41517
thorax -0.304105 0.798919 0.142648
lowerneck -12.8542 -2.01367 -9.31673
upperneck 41.2937 2.04996 2.15647
head 17.2583 0.562971 3.30337
rclavicle 5.34731e-014 6.06293e-014
rhumerus -25.5775 -5.5977 -78.9682
rradius 30.5825
rwrist -12.938
rhand -26.4257 14.5492
rfingers 7.12502
rthumb 0.134543 -15.4305
lclavicle 5.34731e-014 6.06293e-014
lhumerus -38.1118 9.81178 77.7938
lradius 43.4552
lwrist 11.1643
lhand -25.3318 23.9913
lfingers 7.12502
lthumb 1.19112 53.9678
rfemur -9.48867 -6.45496 26.7757
rtibia 30.7646
rfoot -17.286 -1.81684
rtoes 7.05902
lfemur -10.2407 -8.71144 -9.53615
ltibia 30.5895
lfoot -13.031 -16.265
ltoes 21.8069
3916
root 29.5849 17.8921 0.819557 199.695 -293.342 -879.393
lowerback 7.02783 0.443806 5.67544
upperback 3.33521 1.2012 3.58483
thorax -0.456909 0.723154 0.428298
lowerneck -12.9422 -1.90476 -9.19428
upperneck 41.1012 2.37287 1.675
head 17.1629 0.654325 3.10976
rclavicle 2.89729e-014 -2.78299e-014
rhumerus -25.4087 -4.33364 -79.0093
rradius 30.9679
rwrist -13.5296
rhand -26.5484 15.1284
rfingers 7.12502
rthumb 0.0160938 -14.8513
lclavicle 2.89729e-014 -2.78299e-014
lhumerus -38.2495 9.98308 78.1963
lradius 42.9371
lwrist 11.3804
lhand -25.3663 23.6268
lfingers 7.12502
lthumb 1.15781 53.6034
rfemur -9.43984 -7.67289 26.551
rtibia 30.6815
rfoot -17.4387 -1.14595
rtoes 9.18921
lfemur -10.4143 -8.89153 -9.64253
ltibia 30.4967
lfoot -12.5025 -16.5708
ltoes 24.6376
3917
root 29.5993 17.9017 0.839634 197.963 -294.078 -881.208
lowerback 7.20903 0.56785 5.45829
upperback 3.36058 1.36056 3.43474
thorax -0.527683 0.799008 0.379815
lowerneck -12.9557 -1.99511 -8.99284
upperneck 40.9079 2.25719 1.44732
head 17.0735 0.617283 2.94382
rclavicle 2.79789e-014 -3.22031e-014
rhumerus -25.4237 -4.37128 -78.9839
rradius 31.3394
rwrist -13.2885
rhand -26.8298 14.4075
rfingers 7.12502
rthumb -0.25568 -15.5721
lclavicle 2.79789e-014 -3.22031e-014
lhumerus -38.113 9.40254 78.6095
lradius 42.2952
lwrist 11.1597
lhand -25.2921 23.9333
lfingers 7.12502
lthumb 1.22946 53.9095
rfemur -9.21913 -8.17155 26.0921
rtibia 30.4137
rfoot -17.5133 -1.46693
rtoes 9.69588
lfemur -10.7 -8.59737 -10.1472
ltibia 30.756
lfoot -12.849 -16.7539
ltoes 22.4328
3918
root 29.6178 17.894 0.867392 196.722 -294.867 -882.522
lowerback 7.3407 0.707358 5.33524
upperback 3.33549 1.5448 3.31947
thorax -0.620908 0.886844 0.312721
lowerneck -12.8973 -2.07667 -8.6785
upperneck 40.7645 2.15298 1.16338
head 16.9935 0.597767 2.73721
rclavicle -1.22253e-014 -4.45278e-014
rhumerus -25.5974 -4.54519 -78.8947
rradius 31.7604
rwrist -12.6476
rhand -26.9045 13.1248
rfingers 7.12502
rthumb -0.327873 -16.8547
lclavicle -1.22253e-014 -4.45278e-014
lhumerus -38.1341 8.68101 78.9456
lradius 41.7613
lwrist 11.1026
lhand -26.1094 23.5986
lfingers 7.12502
lthumb 0.440061 53.5779
rfemur -9.03322 -8.06605 26.0804
rtibia 30.241
rfoot -17.5148 -3.25984
rtoes 5.50405
lfemur -10.8771 -8.11333 -10.4407
ltibia 30.7269
lfoot -13.321 -16.6482
ltoes 18.0193
3919
root 29.6258 17.8443 0.894078 196.932 -295.985 -882.411
lowerback 7.32699 0.562591 5.70601
upperback 3.28344 1.39624 3.55423
thorax -0.668621 0.818721 0.359782
lowerneck -13.1929 -2.03686 -8.99798
upperneck 41.0158 2.32598 1.3874
head 17.1951 0.649558 2.94477
rclavicle -1.54058e-015 -9.14409e-015
rhumerus -25.6022 -3.95096 -78.8422
rradius 32.2323
rwrist -12.8514
rhand -26.59 12.9611
rfingers 7.12502
rthumb -0.024099 -17.0187
lclavicle -1.54058e-015 -9.14409e-015
lhumerus -38.1902 8.67252 79.2519
lradius 41.1079
lwrist 10.8234
lhand -26.668 22.7339
lfingers 7.12502
lthumb -0.0994665 52.7136
rfemur -9.04167 -9.26258 26.9667
rtibia 29.9056
rfoot -16.7702 -6.13555
rtoes -11.0496
lfemur -11.4982 -7.65596 -9.93237
ltibia 31.0451
lfoot -13.419 -16.904
ltoes 17.6848
3920
root 29.6451 17.932 0.918465 197.36 -297.179 -881.98
lowerback 7.35022 0.445227 6.42393
upperback 3.326 1.30996 3.71935
thorax -0.626669 0.790956 0.138786
lowerneck -13.741 -2.06987 -9.51768
upperneck 41.3945 2.31236 2.04211
head 17.5369 0.641677 3.36727
rclavicle 7.50412e-014 2.14687e-014
rhumerus -25.4721 -3.46753 -78.9321
rradius 32.647
rwrist -13.6747
rhand -25.9931 13.8682
rfingers 7.12502
rthumb 0.552376 -16.1108
lclavicle 7.50412e-014 2.14687e-014
lhumerus -37.953 8.49051 79.5956
lradius 40.3103
lwrist 10.293
lhand -26.94 21.782
lfingers 7.12502
lthumb -0.362177 51.7615
rfemur -8.9542 -6.79418 27.386
rtibia 29.8174
rfoot -17.9938 -5.04866
rtoes 12.9718
lfemur -11.6954 -7.18163 -9.2639
ltibia 30.8815
lfoot -13.0608 -16.9981
ltoes 19.567
